<?xml version="1.0" encoding="utf-8"?>
<!-- Generator: Adobe Illustrator 21.0.0, SVG Export Plug-In . SVG Version: 6.00 Build 0)  -->
<svg version="1.1" id="レイヤー_1" xmlns="http://www.w3.org/2000/svg" xmlns:xlink="http://www.w3.org/1999/xlink" x="0px"
	 y="0px" viewBox="0 0 238.3 94.3" style="enable-background:new 0 0 238.3 94.3;" xml:space="preserve">
<style type="text/css">
	.st0{fill:#FFFFFF;}
</style>
<g>
	<g>
		<path class="st0" d="M44.1,58.7c0,2.7-1,5-3,6.8l-6.4,5.9c-1.7,1.5-3.7,2.3-6.2,2.3H15.6c-2.4,0-4.5-0.8-6.2-2.3L3,65.5
			c-2-1.8-3-4.1-3-6.8V23.3h10.2v34.5c0,0.9,0.3,1.6,0.9,2.1l3.9,3.6c0.5,0.5,1.2,0.8,1.9,0.8h10.1c0.8,0,1.4-0.3,1.9-0.8l4-3.7
			c0.6-0.5,0.9-1.2,0.9-2.1V43.8h10.3V58.7z"/>
		<path class="st0" d="M96.7,72.7H62.2c-1.4,0-2.6-0.5-3.7-1.5l-4.3-3.9c-1.2-1.1-1.8-2.5-1.8-4.1v-7.3c0-2.1,0.7-3.9,2.2-5.2
			l5.4-4.7l6.6,7.1l-3.4,2.8c-0.4,0.4-0.6,0.9-0.6,1.6v3.9c0,0.3,0.1,0.6,0.3,0.8l0.8,0.7c0.2,0.2,0.4,0.3,0.8,0.3h32.2V72.7z
			 M95.4,35.6H55.2v-9.4H85v4h10.4V35.6z M91.2,28.7h-4.7v-6.4h4.7V28.7z M97.8,28.7H93v-6.4h4.7V28.7z"/>
		<path class="st0" d="M162.7,38.8h-9.5c-0.4,0-0.6,0.2-0.6,0.7c0,0.1,0,0.2,0,0.2l4.7,14.4l-9.6,3.2l-1.2-3.3
			c-0.4-0.3-0.7-0.5-1.2-0.5h-14.9c-0.5,0-0.9,0.2-1.2,0.5l-1.3,1.2c-0.4,0.5-0.6,1-0.6,1.6v4.9c0,0.5,0.2,1,0.5,1.3l1.5,1.4
			c0.3,0.3,0.7,0.5,1.2,0.5h26.4v8.5h-30c-1.4,0-2.7-0.5-3.7-1.4l-4.3-4c-1.2-1.1-1.8-2.5-1.8-4.1v-8.7c0-2,0.8-3.7,2.3-5.2l3.8-3.6
			c1-1,2.3-1.5,3.7-1.5h16.7l-1.7-5.2c-0.2-0.6-0.6-0.9-1.3-0.9h-24.2v-8.6h21.4c0.5,0,0.7-0.2,0.7-0.6c0-0.1-0.1-0.2-0.1-0.2
			l-1.4-4.3l9.7-3.2l2.5,7.5c0.2,0.6,0.7,0.9,1.3,0.9h12.2V38.8z"/>
		<path class="st0" d="M223.8,61.3c0,2.4-0.9,4.4-2.6,5.9l-4.8,4.5c-1.5,1.4-3.3,2.1-5.4,2.1h-7v-9.5h5.3c0.7,0,1.2-0.2,1.7-0.6
			l1.9-1.7c0.5-0.5,0.8-1.1,0.8-1.9V46.4c0-0.6-0.2-1.2-0.7-1.6l-1.3-1.2c-0.4-0.4-0.8-0.5-1.4-0.5H206c-0.7,0-1.1,0.3-1.2,1
			l-7.1,30.4l-9.8-2.6l6.4-27.4c0.2-0.9-0.2-1.3-1.1-1.3h-14.2c-0.7,0-1.1-0.8-0.7-1.3l11.4-15c0.2-0.3,0.7-0.1,0.7,0.3v6.7h5.4
			c0.7,0,1.1-0.3,1.2-1l2.4-10.7l9.8,2.6l-1.8,7.7c-0.2,0.9,0.1,1.3,1,1.3h3.9c1.8,0,3.4,0.6,4.7,1.8l4.6,4.3
			c1.5,1.4,2.3,3.1,2.3,5.2V61.3z M238.3,51.8l-9,2.3l-7-22l9-2.3L238.3,51.8z M231,28.8h-4.7v-6.4h4.7V28.8z M237.6,28.8h-4.7v-6.4
			h4.7V28.8z"/>
	</g>
</g>
<g>
	<path class="st0" d="M25,0.9c-0.1,0.4-0.1,0.9-0.2,2.1c-0.1,1.4-0.2,4.6-0.2,5.7c0,1.5,0.1,2,0.4,2.5c0.4,0.5,1.2,0.8,2.3,0.8
		c1.8,0,3.3-0.9,4.1-2.6c0.4-0.8,0.6-1.5,0.8-2.6c0.9,0.7,1.2,0.8,2.1,1.2c-0.7,2.1-1.2,3.1-2,3.9c-1.3,1.3-2.9,2-5.1,2
		c-1.2,0-2.3-0.2-3-0.7c-1.2-0.7-1.7-1.9-1.7-4c0-0.8,0-2.3,0.1-6.2c0-0.5,0-0.8,0-1c0-0.4,0-0.6-0.1-1L25,0.9z"/>
	<path class="st0" d="M41.2,7.9c-1.1,0.8-1.5,1.5-1.5,2.1c0,1,1.2,1.4,4.1,1.4c2,0,4.2-0.3,5.3-0.7l0.2,2.1c-0.3,0-0.4,0-0.7,0.1
		c-2,0.3-3.1,0.4-4.6,0.4c-1.8,0-3.3-0.2-4.2-0.5c-1.5-0.5-2.2-1.4-2.2-2.6c0-1.2,0.7-2.2,2.2-3.4L41.2,7.9z M38.6,1.6
		C39.9,1.9,41.4,2,43.7,2c2.2,0,3.4-0.1,4.5-0.3l0.1,1.7c-1,0.4-3.1,1.6-4.5,2.5l-1.5-1.1c1.1-0.6,1.3-0.7,1.7-0.9
		c0.2-0.1,0.2-0.1,0.4-0.2c0.1-0.1,0.2-0.1,0.4-0.2c-0.7,0.1-1.5,0.1-2.5,0.1c-0.9,0-2.3-0.1-3.1-0.2c-0.2,0-0.3,0-0.4,0
		c0,0-0.1,0-0.2,0L38.6,1.6z M47.6,5c0.7,0.7,1.2,1.3,1.8,2.3l-1.2,0.6c-0.6-0.9-1-1.6-1.8-2.3L47.6,5z M50.2,6.9
		c-0.5-0.8-1.1-1.6-1.7-2.2l1.1-0.5c0.8,0.7,1.2,1.3,1.8,2.2L50.2,6.9z"/>
	<path class="st0" d="M58.1,0.5c0.1,1,0.6,3.3,1.1,4.8C60.4,5,60.4,5,63.7,4C64,3.9,64,3.9,64.3,3.8L65,5.7
		c-1.5,0.3-3.7,0.8-5.6,1.5C57,8,55.7,9,55.7,10.1c0,1.1,1.2,1.6,3.9,1.6c2.1,0,4.2-0.2,5.5-0.6l0.2,2.1c-0.4,0-0.5,0-1.4,0.1
		c-1.8,0.2-2.8,0.2-4,0.2c-2.4,0-3.8-0.3-4.9-0.8c-0.9-0.5-1.5-1.5-1.5-2.6c0-1,0.5-2,1.5-2.8c0.7-0.5,1.2-0.8,2.3-1.3
		c-0.4-1.2-0.7-2.3-1.1-4.2c-0.2-0.7-0.2-0.8-0.3-1L58.1,0.5z"/>
	<path class="st0" d="M69.1,3.4c0.5,0.1,0.9,0.1,1.6,0.1c1.3,0,3.5-0.1,4.6-0.3c-0.3-0.7-1-2.3-1.1-2.4l2.2-0.3
		c0.1,0.5,0.4,1.3,0.9,2.5c1.7-0.3,3.3-0.6,4.2-0.9l0.2,1.8c-0.4,0.1-0.6,0.1-1.2,0.2c-0.3,0.1-1.1,0.2-2.5,0.5c0.6,1,1,1.7,1.2,2
		C79.6,7.3,80.4,8.3,81,9l-2,0.8c-0.4-0.4-0.7-0.5-1.2-0.7c-0.8-0.2-1.7-0.4-2.7-0.4c-2.3,0-3.7,0.6-3.7,1.7c0,1,1.3,1.6,3.6,1.6
		c1.8,0,3.8-0.4,5.1-1l0.3,2c-2.1,0.6-3.7,0.8-5.4,0.8c-2.2,0-3.8-0.4-4.7-1.2c-0.6-0.6-1-1.3-1-2.1c0-0.9,0.4-1.7,1.2-2.3
		c1-0.8,2.4-1.1,4.3-1.1c1.1,0,2.1,0.2,2.9,0.5c-0.7-0.9-0.7-0.9-1.8-2.8c-1.5,0.2-4,0.3-6,0.4c-0.4,0-0.5,0-0.7,0L69.1,3.4z"/>
	<path class="st0" d="M90.6,1.5c-0.1,0.4-0.2,1.1-0.4,1.9c-0.1,0.3-0.1,0.3-0.1,0.5c0.5,0,0.7,0,1.1,0c1.1,0,1.9,0.3,2.5,0.8
		c0.6,0.6,0.8,1.3,0.8,2.7c0,2.6-0.5,4.8-1.3,5.6c-0.5,0.5-1,0.7-1.9,0.7c-0.8,0-1.5-0.1-2.6-0.5c0-0.3,0-0.5,0-0.7
		c0-0.4,0-0.7-0.2-1.3c0.9,0.4,1.9,0.6,2.5,0.6c0.5,0,0.8-0.3,1-1c0.3-0.8,0.4-2.2,0.4-3.5c0-1.4-0.4-1.8-1.7-1.8c-0.4,0-0.6,0-1,0
		c-0.8,3.2-1.6,5-3.5,8.4l-2-1c1.3-1.6,2.6-4.4,3.4-7.3c-0.3,0-0.3,0-0.8,0.1L85.5,6c-0.3,0-0.5,0.1-0.7,0.2l-0.2-1.8
		c0.8,0,1.6-0.1,3.6-0.3c0.3-1.7,0.4-2.6,0.4-3.1c0-0.1,0-0.2,0-0.3l2.2,0.2c-0.1,0.1-0.1,0.3-0.1,0.5L90.6,1.5z M95.8,0.9
		c0.7,0.7,1.2,1.3,1.8,2.3l-1.2,0.6c-0.6-0.9-1-1.6-1.8-2.3L95.8,0.9z M97.4,4c1.2,1.5,2.1,3.1,2.5,4.9L98,9.7
		c-0.3-1.6-1.4-3.9-2.3-5L97.4,4z M98.4,2.8c-0.5-0.8-1.1-1.6-1.7-2.2L97.8,0c0.8,0.7,1.2,1.3,1.8,2.2L98.4,2.8z"/>
	<path class="st0" d="M111.6,6.3c0,0.1,0,0.2,0,0.4c0.4,0.7,0.5,1.3,0.5,2.2c0,1.7-0.9,3.1-2.5,4.2c-0.7,0.4-1.5,0.8-3.1,1.3
		c-0.5-1-0.6-1.2-1.2-1.7c1.4-0.2,2.1-0.5,2.9-0.9c1.2-0.6,1.8-1.4,2-2.2c-0.5,0.7-1.4,1.1-2.5,1.1c-0.8,0-1.4-0.2-2-0.6
		c-0.8-0.5-1.2-1.2-1.2-2.1c0-1.6,1.4-2.8,3.4-2.8c0.7,0,1.4,0.2,1.8,0.5c0-0.1,0-0.1,0-0.2c0,0,0-0.9,0-1.3c-2.4,0.1-4,0.1-4.8,0.2
		c-2.6,0.2-2.6,0.2-3,0.2l-0.1-1.8c0.4,0,0.5,0,0.8,0c0.4,0,0.7,0,2.9-0.1c1.1,0,1.3,0,2.7-0.1c0.6,0,0.6,0,1.4,0
		c0-1.5,0-1.5-0.1-1.9l2.1,0c-0.1,0.5-0.1,0.5-0.1,1.8c2.9,0,4.3,0,4.9-0.1l0,1.8c-0.6,0-1.4-0.1-2.8-0.1c-0.4,0-0.7,0-2.1,0v1
		L111.6,6.3z M108.2,6.5c-0.9,0-1.6,0.6-1.6,1.2c0,0.7,0.6,1.2,1.4,1.2c1,0,1.7-0.6,1.7-1.4C109.7,6.9,109.1,6.5,108.2,6.5z"/>
</g>
<g>
	<path class="st0" d="M185.7,86.7L173.4,75l-6,6.5L179.6,93c0.9,0.8,1.9,1.2,3,1.2c1.2,0,2.3-0.5,3.2-1.4
		C187.5,91.1,187.5,88.3,185.7,86.7z"/>
	<path class="st0" d="M172.1,73.9l-2.8-2.6c4.8-6.3,7.6-14.2,7.6-22.7c0-20.7-16.8-37.6-37.6-37.6c-20.7,0-37.6,16.8-37.6,37.6
		s16.8,37.6,37.6,37.6c9,0,17.3-3.2,23.8-8.5l2.9,2.7L172.1,73.9z M106,48.6c0-18.5,15-33.5,33.5-33.5c18.5,0,33.5,15,33.5,33.5
		c0,18.5-15,33.5-33.5,33.5C121,82.1,106,67.1,106,48.6z"/>
</g>
</svg>
